<svg width="32" height="32" viewBox="0 0 32 32" fill="none" xmlns="http://www.w3.org/2000/svg">
  <!-- Background circle -->
  <circle cx="16" cy="16" r="16" fill="#000000"/>
  
  <!-- Web/globe grid lines -->
  <path d="M8 16C8 11.5817 11.5817 8 16 8C20.4183 8 24 11.5817 24 16" stroke="#FFFFFF" stroke-width="1.5" stroke-linecap="round"/>
  <path d="M8 16C8 20.4183 11.5817 24 16 24C20.4183 24 24 20.4183 24 16" stroke="#FFFFFF" stroke-width="1.5" stroke-linecap="round"/>
  
  <!-- Vertical lines representing code -->
  <line x1="12" y1="8" x2="12" y2="24" stroke="#FFFFFF" stroke-width="1" opacity="0.7"/>
  <line x1="20" y1="8" x2="20" y2="24" stroke="#FFFFFF" stroke-width="1" opacity="0.7"/>
  
  <!-- Horizontal lines representing structure -->
  <line x1="8" y1="12" x2="24" y2="12" stroke="#FFFFFF" stroke-width="1" opacity="0.7"/>
  <line x1="8" y1="20" x2="24" y2="20" stroke="#FFFFFF" stroke-width="1" opacity="0.7"/>
  
  <!-- Center dot representing the core -->
  <circle cx="16" cy="16" r="2" fill="#FFFFFF"/>
  
  <!-- Small accent dots -->
  <circle cx="10" cy="10" r="1" fill="#FFFFFF" opacity="0.8"/>
  <circle cx="22" cy="10" r="1" fill="#FFFFFF" opacity="0.8"/>
  <circle cx="10" cy="22" r="1" fill="#FFFFFF" opacity="0.8"/>
  <circle cx="22" cy="22" r="1" fill="#FFFFFF" opacity="0.8"/>
</svg>